<svg version="1.1" xmlns="http://www.w3.org/2000/svg" xmlns:xlink="http://www.w3.org/1999/xlink" width="20.75" height="20.75" viewBox="0,0,20.75,20.75"><g transform="translate(-240.25,-162)"><g data-paper-data="{&quot;isPaintingLayer&quot;:true}" fill="none" fill-rule="nonzero" stroke="#ff0000" stroke-width="2" stroke-linejoin="miter" stroke-miterlimit="10" stroke-dasharray="" stroke-dashoffset="0" style="mix-blend-mode: normal"><path d="M241.25,172.375c0,-5.17767 4.19733,-9.375 9.375,-9.375c5.17767,0 9.375,4.19733 9.375,9.375c0,5.17767 -4.19733,9.375 -9.375,9.375c-5.17767,0 -9.375,-4.19733 -9.375,-9.375z" stroke-linecap="butt"/><path d="M246.7717,178.70496c-0.35834,-2.10728 1.53182,-3.53853 3.83341,-3.53853c2.30159,0 4.77068,1.16484 4.71804,3.53853" stroke-linecap="round"/><path d="M246.09706,168.00351c0,-0.52358 0.42445,-0.94803 0.94803,-0.94803c0.52358,0 0.94803,0.42445 0.94803,0.94803c0,0.52358 -0.42445,0.94803 -0.94803,0.94803c-0.52358,0 -0.94803,-0.42445 -0.94803,-0.94803z" stroke-linecap="butt"/><path d="M253.892,167.89817c0,-0.52358 0.42445,-0.94803 0.94803,-0.94803c0.52358,0 0.94803,0.42445 0.94803,0.94803c0,0.52358 -0.42445,0.94803 -0.94803,0.94803c-0.52358,0 -0.94803,-0.42445 -0.94803,-0.94803z" stroke-linecap="butt"/></g></g></svg>